<svg width="56" height="56" fill="none" xmlns="http://www.w3.org/2000/svg"><circle cx="28" cy="28" r="28" fill="#E87722"></circle><path d="M28 14.667c-7.334 0-13.334 6-13.334 13.333s6 13.333 13.333 13.333c7.334 0 13.334-6 13.334-13.333s-6-13.333-13.334-13.333zm0 24c-5.867 0-10.667-4.8-10.667-10.667s4.8-10.667 10.666-10.667c5.867 0 10.667 4.8 10.667 10.667s-4.8 10.667-10.667 10.667z" fill="#fff"></path><path d="M28.733 32h-1.4c-.4 0-.666-.333-.666-.733.266-2.2 1.533-3.067 2.533-3.734.8-.533 1.267-.866 1.4-1.733.2-1.467-.667-2.8-2.133-3.133-1.534-.267-2.867.666-3.134 2.066-.066.334-.333.534-.666.534h-1.334c-.4 0-.733-.334-.666-.734.4-2.933 3.2-5.066 6.4-4.466 2.666.533 4.466 3.066 4.2 5.8-.2 2.266-1.534 3.2-2.6 3.866-.8.534-1.267.8-1.4 1.667.066.333-.2.6-.534.6zM28.666 36h-1.333c-.4 0-.667-.267-.667-.667V34c0-.4.267-.667.667-.667h1.333c.4 0 .667.267.667.667v1.333c0 .4-.267.667-.667.667z" fill="#fff"></path></svg>