<svg width="56" height="56" fill="none" xmlns="http://www.w3.org/2000/svg"><circle cx="28" cy="28" r="28" fill="#E87722"></circle><path fill-rule="evenodd" clip-rule="evenodd" d="M20 38.667h16V17.333H20v21.334zm18.667-22v22.666a2 2 0 01-2 2H19.334a2 2 0 01-2-2V16.667a2 2 0 012-2h17.333a2 2 0 012 2zm-15.333 18h4a2 2 0 002-2V32h-6a.667.667 0 00-.667.667V34c0 .368.299.667.667.667zm0-10.667h9.333a.667.667 0 00.667-.667V22a.667.667 0 00-.667-.667h-9.333a.667.667 0 00-.667.667v1.333c0 .368.299.667.667.667zm-.667 4.667v-1.334c0-.368.299-.666.667-.666h9.333c.368 0 .667.298.667.666v1.334a.667.667 0 01-.667.666h-9.333a.667.667 0 01-.667-.666z" fill="#fff"></path></svg>