<svg width="56" height="56" fill="none" xmlns="http://www.w3.org/2000/svg"><circle cx="28" cy="28" r="28" fill="#E87722"></circle><path fill-rule="evenodd" clip-rule="evenodd" d="M29.332 29.334h-4.667A.666.666 0 0024 30v1.334c0 .368.298.666.666.666h2.667a2 2 0 002-2v-.666zM24.665 24a.667.667 0 00-.666.667V26c0 .368.298.667.666.667h6.667a.667.667 0 00.667-.667v-1.333a.667.667 0 00-.667-.667h-6.667zm6.675-7.333a2 2 0 00-2-2H17.334a2 2 0 00-2 2V34a2 2 0 002 2h.667V17.334H31.34v-.667zm-2.675 22h-6.667V21.333h12.006v6a2 2 0 002 2h.667v-8.667a2 2 0 00-2-2H21.33a2 2 0 00-2 2v18.668a2 2 0 002 2h5.334a2 2 0 002-2v-.667zm12.006-6.704l-7.61 7.61-3.61-3.61.472-.471a1.999 1.999 0 012.828 0l.31.31 4.31-4.31a2 2 0 012.828 0l.472.471z" fill="#fff"></path></svg>